# xmcd CD database file
#
# Track frame offsets:
#	150
#	35122
#	96085
#	124990
#	176085
#	206787
#	243910
#	265765
#	328397
#
# Disc length: 4607 seconds
#
# Revision: 0
# Processed by: cddbd v1.5.2PL0 Copyright (c) Steve Scherf et al.
# Submitted via: CDex 1.50
#
DISCID=8911fd09
DTITLE=Dave Holland Quintet - Prime Directive
DYEAR=1999
DGENRE=Jazz
TTITLE0=Prime Directive
TTITLE1=Looking Up
TTITLE2=Make Believe
TTITLE3=A Seeking Spirit
TTITLE4=High Wire
TTITLE5=Jugglers Parade
TTITLE6=Candlelight Vigil
TTITLE7=Wonders Never Cease
TTITLE8=Down Time
EXTD=YEAR: 1999
EXTT0=
EXTT1=
EXTT2=
EXTT3=
EXTT4=
EXTT5=
EXTT6=
EXTT7=
EXTT8=
PLAYORDER=
